<?xml version="1.0" encoding="UTF-8"?>
<svg id="_图层_1" data-name="图层_1" xmlns="http://www.w3.org/2000/svg" version="1.1" viewBox="0 0 800 800">
  <!-- Generator: Adobe Illustrator 29.1.0, SVG Export Plug-In . SVG Version: 2.1.0 Build 142)  -->
  <defs>
    <style>
      .st0 {
        fill: #2e60e7;
      }
    </style>
  </defs>
  <polygon class="st0" points="623.51 334.91 563.47 297.58 681.31 107.5 764.92 107.49 623.51 334.91"/>
  <polygon class="st0" points="223.78 691.6 141.94 692.94 281.29 468.83 340.46 505.62 223.78 691.6"/>
  <path class="st0" d="M471.13,511.03h-234.06c-111.38,0-201.99-90.61-201.99-201.99S125.69,107.06,237.07,107.06h326.96l-42.97,69.67H237.07c-72.96,0-132.31,59.35-132.31,132.31s59.35,132.31,132.31,132.31h277.03l-42.97,69.67Z"/>
  <path class="st0" d="M531.58,687.53h-182.38l42.97-69.67h139.42c72.96,0,132.31-59.35,132.31-132.31s-59.35-132.31-132.31-132.31H197.65l41.22-69.67h292.7c111.37,0,201.99,90.61,201.99,201.99s-90.61,201.99-201.99,201.99Z"/>
</svg>